<?xml version="1.0" encoding="utf-8"?><!--Generator: Adobe Illustrator 26.3.1, SVG Export Plug-In . SVG Version: 6.00 Build 0)--><svg version="1.1" xmlns="http://www.w3.org/2000/svg" xmlns:xlink="http://www.w3.org/1999/xlink" x="0px" y="0px" viewBox="0 0 1000 424.9" style="enable-background:new 0 0 1000 424.9;" xml:space="preserve"><style type="text/css">.st0{fill:#FFFFFF;}</style><g id="Layer_1"><g><path d="M517.2,223.5c-8.1-9.1-17.7-18.4-28.7-27.6l-3.6-20.5c-8.6-48.5-34.1-92.9-72-125C374.6,17.9,325.9,0,275.7,0
			c-56.3,0-111.2,23-151,63.1c-11.4-1.7-29.6-3.8-39.3-3.8c-55.7,0-74.6,27.5-80.9,43.9c-11.3,29.4-1,63.3,29.8,98.2
			c8.1,9.1,17.7,18.4,28.7,27.6l3.6,20.5c8.6,48.5,34.1,92.9,72,125c38.3,32.5,87,50.4,137.2,50.4c55.8,0,108.3-21.4,148.3-60.4
			c11,1,26.6,1.2,39.4,1.2h2.7c55.7,0,74.6-27.5,80.9-43.9C558.3,292.3,548,258.3,517.2,223.5z"/><path class="st0" d="M275.7,35.6c79.8,0,147.4,53.1,169.4,125.9c8.6,5.3,16.9,10.9,24.8,16.6C453.6,85.7,372.7,15.2,275.7,15.2
			c-91.3,0-168.3,62.4-190.6,146.8c5.4,4.7,11.3,9.3,17.6,13.9C119.5,95.9,190.7,35.6,275.7,35.6z"/><path class="st0" d="M448.8,249c-16.9,80.1-88.1,140.3-173.1,140.3c-79.8,0-147.4-53.1-169.4-125.9c-8.6-5.3-16.9-10.9-24.8-16.6
			c16.3,92.4,97.2,162.8,194.2,162.8c91.3,0,168.3-62.4,190.6-146.8C461,258.2,455.1,253.5,448.8,249z"/><path class="st0" d="M466.1,350.4c34.5,0,58.2-12.1,66.7-34.2c11.6-30-8.3-61.5-27-82.7c-23.9-27-61-54-101.9-74.1
			c-68.9-33.9-135-43.2-168.4-23.8c-3.9,2.3-6.9,6.2-8.2,10.9c-1.4,4.8-1,9.8,1,14.3c2,4.4,5.5,7.7,9.7,9.3
			c4.2,1.5,8.7,1.1,12.7-1.2c20.4-11.8,75-7.1,140,24.9c5,2.5,10,5.1,15,7.8c31.9,16.4,60.5,36,80.5,55.4
			c33.2,32.1,34,54.9,28.8,68.3c-5.9,15.4-26,23.2-59.7,23.2c-6.4,0-13.3-0.3-20.6-0.9C445.8,349.4,456.3,350.4,466.1,350.4
			C466,350.4,466,350.4,466.1,350.4z"/><path class="st0" d="M85.4,74.5c-34.5,0-58.2,12.1-66.7,34.2c-11.6,30,8.3,61.5,27,82.7c23.9,27,61,54,101.9,74.1
			c68.9,33.9,135,43.2,168.4,23.8c3.9-2.3,6.9-6.2,8.2-10.9c1.4-4.8,1-9.8-1-14.3c-2-4.4-5.5-7.7-9.7-9.3c-4.2-1.5-8.7-1.1-12.7,1.2
			c-20.4,11.8-75,7.1-140-24.9c-5-2.5-10-5.1-15-7.8c-31.9-16.4-60.5-36-80.5-55.4c-33.2-32.1-34-54.9-28.8-68.3
			c5.9-15.4,26-23.2,59.7-23.2c6.4,0,13.3,0.3,20.6,0.9C105.7,75.5,95.2,74.5,85.4,74.5C85.4,74.5,85.4,74.5,85.4,74.5z"/></g><g><path class="st0" d="M688.5,254c4.8,0,9.4-1.7,13.8-5.1c4.4-3.4,7.3-7.4,8.8-12.1c1.5-4.8,1-8.8-1.3-12.2
			c-2.3-3.4-5.9-5.1-10.7-5.1h-19.4c-8.7,0-15.1-3.1-19.3-9.3c-4.3-6.1-5.1-13.5-2.5-22.2c2.6-8.7,8-16,16-22.2
			c8-6.2,16.3-9.3,25-9.3h19.4c8.7,0,15.1,3.1,19.4,9.3c4.3,6.1,5.1,13.5,2.5,22.2c-0.6,2-1.8,3.7-3.6,5.1c-1.8,1.4-3.7,2.1-5.7,2.1
			c-2,0-3.4-0.7-4.3-2.1c-1-1.4-1.2-3.1-0.6-5.1c1.4-4.7,1-8.8-1.3-12.1c-2.3-3.4-5.9-5.1-10.7-5.1h-19.4c-4.7,0-9.3,1.7-13.7,5.1
			c-4.4,3.4-7.3,7.4-8.8,12.1c-1.5,4.8-1,8.8,1.3,12.2c2.3,3.4,5.9,5.1,10.6,5.1h19.4c8.7,0,15.1,3.1,19.4,9.3
			c4.3,6.1,5.1,13.5,2.5,22.2c-2.6,8.7-8,16.1-16,22.2c-8.1,6.2-16.4,9.3-25.1,9.3h-19.4c-8.7,0-15.1-3.1-19.3-9.3
			c-4.3-6.1-5.1-13.5-2.5-22.2c0.6-2,1.8-3.7,3.6-5.1c1.8-1.4,3.6-2.1,5.6-2.1c2,0,3.4,0.7,4.4,2.1c1,1.4,1.2,3.1,0.6,5.1
			c-1.4,4.7-1,8.8,1.3,12.1c2.3,3.4,5.9,5.1,10.6,5.1H688.5z"/><path class="st0" d="M775.9,163.7c0.6-1.9,1.8-3.6,3.6-5c1.8-1.4,3.6-2.1,5.6-2.1c2,0,3.4,0.7,4.4,2.1c1,1.4,1.2,3.1,0.6,5
			L777,206.6l67.7-48.1c1.9-1.3,3.8-2,5.7-1.9c1.9,0.1,3.3,0.9,4.2,2.3c0.9,1.5,0.9,3.2,0.2,5.1c-0.7,2-2,3.6-3.8,4.9l-55.7,39.6
			l29.5,47.8c0.9,1.5,1,3.1,0.3,5.1c-0.7,2-1.9,3.6-3.8,5c-1.7,1.2-3.5,1.9-5.4,1.9c-2.1,0-3.6-0.8-4.5-2.3l-29.5-47.9l-10.7,7.6
			l-10.8,35.5c-0.6,2-1.8,3.6-3.6,5c-1.8,1.4-3.7,2.1-5.7,2.1c-2,0-3.4-0.7-4.3-2.1c-1-1.3-1.2-3-0.6-5L775.9,163.7z"/><path class="st0" d="M858.6,268.2c-2,0-3.4-0.7-4.3-2.1c-1-1.3-1.2-3-0.6-5l29.8-97.5c0.6-1.9,1.8-3.6,3.6-5
			c1.8-1.4,3.6-2.1,5.6-2.1c2,0,3.4,0.7,4.4,2.1c1,1.4,1.2,3.1,0.6,5l-29.8,97.5c-0.6,2-1.8,3.6-3.6,5
			C862.5,267.5,860.6,268.2,858.6,268.2z"/><path class="st0" d="M930.9,170.9c-2,0-3.4-0.7-4.3-2.1c-1-1.4-1.2-3.1-0.6-5.1c0.6-1.9,1.8-3.6,3.6-5c1.8-1.4,3.6-2.1,5.6-2.1
			H973c10,0,17.5,3.6,22.4,10.7c5,7.2,5.9,15.7,2.9,25.7c-3.1,10.1-9.3,18.6-18.6,25.7c-9.3,7.1-18.9,10.7-28.9,10.7h-30.6
			l-9.7,31.7c-0.6,2-1.8,3.6-3.6,5c-1.8,1.4-3.7,2.1-5.7,2.1c-2,0-3.4-0.7-4.3-2.1c-1-1.3-1.2-3-0.6-5l11.9-38.8
			c0.6-2,1.8-3.7,3.6-5.1c1.8-1.4,3.6-2.1,5.6-2.1h37.7c6.1,0,12-2.2,17.6-6.5c5.7-4.4,9.5-9.6,11.3-15.7c1.9-6.1,1.3-11.4-1.7-15.7
			c-3-4.3-7.5-6.5-13.7-6.5H930.9z"/></g></g><g id="Layer_2"/></svg>